<mxfile host="app.diagrams.net" agent="Mozilla/5.0 (Windows NT 10.0; Win64; x64) AppleWebKit/537.36 (KHTML, like Gecko) Chrome/136.0.0.0 Safari/537.36" version="27.0.3">
  <diagram name="第 1 页" id="g0OtNc-vOvwFruMzLS_t">
    <mxGraphModel dx="1123" dy="667" grid="1" gridSize="10" guides="1" tooltips="1" connect="1" arrows="1" fold="1" page="1" pageScale="1" pageWidth="1654" pageHeight="1169" math="1" shadow="0">
      <root>
        <mxCell id="0" />
        <mxCell id="1" parent="0" />
        <mxCell id="GO1PuNOxzDz1cBcKgz99-1" value="&lt;font style=&quot;font-size: 10px;&quot; face=&quot;Simsun&quot;&gt;&lt;b&gt;轨迹表示学习模型&lt;/b&gt;&lt;/font&gt;" style="rounded=1;whiteSpace=wrap;html=1;fillColor=#fff2cc;strokeColor=#d6b656;" vertex="1" parent="1">
          <mxGeometry x="200" y="270" width="120" height="40" as="geometry" />
        </mxCell>
        <mxCell id="GO1PuNOxzDz1cBcKgz99-2" value="" style="shape=flexArrow;endArrow=classic;html=1;rounded=0;" edge="1" parent="1">
          <mxGeometry width="50" height="50" relative="1" as="geometry">
            <mxPoint x="259.65999999999997" y="190" as="sourcePoint" />
            <mxPoint x="259.65999999999997" y="260" as="targetPoint" />
          </mxGeometry>
        </mxCell>
        <mxCell id="GO1PuNOxzDz1cBcKgz99-3" value="&lt;font face=&quot;SimSun&quot;&gt;变长的轨迹数据&lt;/font&gt;" style="text;html=1;align=center;verticalAlign=middle;whiteSpace=wrap;rounded=0;fontSize=10;fontStyle=1" vertex="1" parent="1">
          <mxGeometry x="215" y="120" width="90" height="20" as="geometry" />
        </mxCell>
        <mxCell id="GO1PuNOxzDz1cBcKgz99-65" value="" style="shape=flexArrow;endArrow=classic;html=1;rounded=0;" edge="1" parent="1">
          <mxGeometry width="50" height="50" relative="1" as="geometry">
            <mxPoint x="259.65999999999997" y="320" as="sourcePoint" />
            <mxPoint x="259.65999999999997" y="390" as="targetPoint" />
          </mxGeometry>
        </mxCell>
        <mxCell id="GO1PuNOxzDz1cBcKgz99-66" value="" style="rounded=0;whiteSpace=wrap;html=1;fillColor=#f8cecc;strokeColor=#b85450;" vertex="1" parent="1">
          <mxGeometry x="215" y="150" width="10" height="10" as="geometry" />
        </mxCell>
        <mxCell id="GO1PuNOxzDz1cBcKgz99-67" value="" style="rounded=0;whiteSpace=wrap;html=1;fillColor=#f8cecc;strokeColor=#b85450;" vertex="1" parent="1">
          <mxGeometry x="225" y="150" width="10" height="10" as="geometry" />
        </mxCell>
        <mxCell id="GO1PuNOxzDz1cBcKgz99-68" value="" style="rounded=0;whiteSpace=wrap;html=1;fillColor=#f8cecc;strokeColor=#b85450;" vertex="1" parent="1">
          <mxGeometry x="235" y="150" width="10" height="10" as="geometry" />
        </mxCell>
        <mxCell id="GO1PuNOxzDz1cBcKgz99-69" value="" style="rounded=0;whiteSpace=wrap;html=1;fillColor=#f8cecc;strokeColor=#b85450;" vertex="1" parent="1">
          <mxGeometry x="245" y="150" width="10" height="10" as="geometry" />
        </mxCell>
        <mxCell id="GO1PuNOxzDz1cBcKgz99-70" value="" style="rounded=0;whiteSpace=wrap;html=1;fillColor=#f8cecc;strokeColor=#b85450;" vertex="1" parent="1">
          <mxGeometry x="255" y="150" width="10" height="10" as="geometry" />
        </mxCell>
        <mxCell id="GO1PuNOxzDz1cBcKgz99-71" value="" style="rounded=0;whiteSpace=wrap;html=1;fillColor=#f8cecc;strokeColor=#b85450;" vertex="1" parent="1">
          <mxGeometry x="265" y="150" width="10" height="10" as="geometry" />
        </mxCell>
        <mxCell id="GO1PuNOxzDz1cBcKgz99-72" value="" style="rounded=0;whiteSpace=wrap;html=1;fillColor=#f8cecc;strokeColor=#b85450;" vertex="1" parent="1">
          <mxGeometry x="275" y="150" width="10" height="10" as="geometry" />
        </mxCell>
        <mxCell id="GO1PuNOxzDz1cBcKgz99-73" value="" style="rounded=0;whiteSpace=wrap;html=1;fillColor=#f8cecc;strokeColor=#b85450;" vertex="1" parent="1">
          <mxGeometry x="285" y="150" width="10" height="10" as="geometry" />
        </mxCell>
        <mxCell id="GO1PuNOxzDz1cBcKgz99-74" value="" style="rounded=0;whiteSpace=wrap;html=1;fillColor=#f8cecc;strokeColor=#b85450;" vertex="1" parent="1">
          <mxGeometry x="295" y="150" width="10" height="10" as="geometry" />
        </mxCell>
        <mxCell id="GO1PuNOxzDz1cBcKgz99-76" value="" style="rounded=0;whiteSpace=wrap;html=1;fillColor=#f8cecc;strokeColor=#b85450;" vertex="1" parent="1">
          <mxGeometry x="215" y="140" width="10" height="10" as="geometry" />
        </mxCell>
        <mxCell id="GO1PuNOxzDz1cBcKgz99-77" value="" style="rounded=0;whiteSpace=wrap;html=1;fillColor=#f8cecc;strokeColor=#b85450;" vertex="1" parent="1">
          <mxGeometry x="225" y="140" width="10" height="10" as="geometry" />
        </mxCell>
        <mxCell id="GO1PuNOxzDz1cBcKgz99-78" value="" style="rounded=0;whiteSpace=wrap;html=1;fillColor=#f8cecc;strokeColor=#b85450;" vertex="1" parent="1">
          <mxGeometry x="235" y="140" width="10" height="10" as="geometry" />
        </mxCell>
        <mxCell id="GO1PuNOxzDz1cBcKgz99-79" value="" style="rounded=0;whiteSpace=wrap;html=1;fillColor=#f8cecc;strokeColor=#b85450;" vertex="1" parent="1">
          <mxGeometry x="245" y="140" width="10" height="10" as="geometry" />
        </mxCell>
        <mxCell id="GO1PuNOxzDz1cBcKgz99-80" value="" style="rounded=0;whiteSpace=wrap;html=1;fillColor=#f8cecc;strokeColor=#b85450;" vertex="1" parent="1">
          <mxGeometry x="255" y="140" width="10" height="10" as="geometry" />
        </mxCell>
        <mxCell id="GO1PuNOxzDz1cBcKgz99-81" value="" style="rounded=0;whiteSpace=wrap;html=1;fillColor=#f8cecc;strokeColor=#b85450;" vertex="1" parent="1">
          <mxGeometry x="265" y="140" width="10" height="10" as="geometry" />
        </mxCell>
        <mxCell id="GO1PuNOxzDz1cBcKgz99-82" value="" style="rounded=0;whiteSpace=wrap;html=1;fillColor=#f8cecc;strokeColor=#b85450;" vertex="1" parent="1">
          <mxGeometry x="275" y="140" width="10" height="10" as="geometry" />
        </mxCell>
        <mxCell id="GO1PuNOxzDz1cBcKgz99-83" value="" style="rounded=0;whiteSpace=wrap;html=1;fillColor=#f8cecc;strokeColor=#b85450;" vertex="1" parent="1">
          <mxGeometry x="285" y="140" width="10" height="10" as="geometry" />
        </mxCell>
        <mxCell id="GO1PuNOxzDz1cBcKgz99-84" value="" style="rounded=0;whiteSpace=wrap;html=1;fillColor=#f8cecc;strokeColor=#b85450;" vertex="1" parent="1">
          <mxGeometry x="295" y="140" width="10" height="10" as="geometry" />
        </mxCell>
        <mxCell id="GO1PuNOxzDz1cBcKgz99-86" value="" style="rounded=0;whiteSpace=wrap;html=1;fillColor=#f8cecc;strokeColor=#b85450;" vertex="1" parent="1">
          <mxGeometry x="215" y="160" width="10" height="10" as="geometry" />
        </mxCell>
        <mxCell id="GO1PuNOxzDz1cBcKgz99-87" value="" style="rounded=0;whiteSpace=wrap;html=1;fillColor=#f8cecc;strokeColor=#b85450;" vertex="1" parent="1">
          <mxGeometry x="225" y="160" width="10" height="10" as="geometry" />
        </mxCell>
        <mxCell id="GO1PuNOxzDz1cBcKgz99-88" value="" style="rounded=0;whiteSpace=wrap;html=1;fillColor=#f8cecc;strokeColor=#b85450;" vertex="1" parent="1">
          <mxGeometry x="235" y="160" width="10" height="10" as="geometry" />
        </mxCell>
        <mxCell id="GO1PuNOxzDz1cBcKgz99-89" value="" style="rounded=0;whiteSpace=wrap;html=1;fillColor=#f8cecc;strokeColor=#b85450;" vertex="1" parent="1">
          <mxGeometry x="245" y="160" width="10" height="10" as="geometry" />
        </mxCell>
        <mxCell id="GO1PuNOxzDz1cBcKgz99-90" value="" style="rounded=0;whiteSpace=wrap;html=1;fillColor=#f8cecc;strokeColor=#b85450;" vertex="1" parent="1">
          <mxGeometry x="255" y="160" width="10" height="10" as="geometry" />
        </mxCell>
        <mxCell id="GO1PuNOxzDz1cBcKgz99-91" value="" style="rounded=0;whiteSpace=wrap;html=1;fillColor=#f8cecc;strokeColor=#b85450;" vertex="1" parent="1">
          <mxGeometry x="265" y="160" width="10" height="10" as="geometry" />
        </mxCell>
        <mxCell id="GO1PuNOxzDz1cBcKgz99-92" value="" style="rounded=0;whiteSpace=wrap;html=1;fillColor=#f8cecc;strokeColor=#b85450;" vertex="1" parent="1">
          <mxGeometry x="275" y="160" width="10" height="10" as="geometry" />
        </mxCell>
        <mxCell id="GO1PuNOxzDz1cBcKgz99-93" value="" style="rounded=0;whiteSpace=wrap;html=1;fillColor=#f8cecc;strokeColor=#b85450;" vertex="1" parent="1">
          <mxGeometry x="285" y="160" width="10" height="10" as="geometry" />
        </mxCell>
        <mxCell id="GO1PuNOxzDz1cBcKgz99-94" value="" style="rounded=0;whiteSpace=wrap;html=1;fillColor=#f8cecc;strokeColor=#b85450;" vertex="1" parent="1">
          <mxGeometry x="295" y="160" width="10" height="10" as="geometry" />
        </mxCell>
        <mxCell id="GO1PuNOxzDz1cBcKgz99-96" value="&lt;font style=&quot;font-size: 8px;&quot;&gt;$$(L,F)$$&lt;/font&gt;" style="text;html=1;align=center;verticalAlign=middle;whiteSpace=wrap;rounded=0;" vertex="1" parent="1">
          <mxGeometry x="240" y="170" width="40" height="20" as="geometry" />
        </mxCell>
        <mxCell id="GO1PuNOxzDz1cBcKgz99-103" value="" style="rounded=0;whiteSpace=wrap;html=1;fillColor=#fff2cc;strokeColor=#d6b656;" vertex="1" parent="1">
          <mxGeometry x="255" y="410" width="10" height="10" as="geometry" />
        </mxCell>
        <mxCell id="GO1PuNOxzDz1cBcKgz99-104" value="" style="rounded=0;whiteSpace=wrap;html=1;fillColor=#fff2cc;strokeColor=#d6b656;" vertex="1" parent="1">
          <mxGeometry x="255" y="420" width="10" height="10" as="geometry" />
        </mxCell>
        <mxCell id="GO1PuNOxzDz1cBcKgz99-105" value="" style="rounded=0;whiteSpace=wrap;html=1;fillColor=#fff2cc;strokeColor=#d6b656;" vertex="1" parent="1">
          <mxGeometry x="255" y="400" width="10" height="10" as="geometry" />
        </mxCell>
        <mxCell id="GO1PuNOxzDz1cBcKgz99-106" value="" style="rounded=0;whiteSpace=wrap;html=1;fillColor=#fff2cc;strokeColor=#d6b656;" vertex="1" parent="1">
          <mxGeometry x="255" y="440" width="10" height="10" as="geometry" />
        </mxCell>
        <mxCell id="GO1PuNOxzDz1cBcKgz99-107" value="" style="rounded=0;whiteSpace=wrap;html=1;fillColor=#fff2cc;strokeColor=#d6b656;" vertex="1" parent="1">
          <mxGeometry x="255" y="450" width="10" height="10" as="geometry" />
        </mxCell>
        <mxCell id="GO1PuNOxzDz1cBcKgz99-108" value="" style="rounded=0;whiteSpace=wrap;html=1;fillColor=#fff2cc;strokeColor=#d6b656;" vertex="1" parent="1">
          <mxGeometry x="255" y="430" width="10" height="10" as="geometry" />
        </mxCell>
        <mxCell id="GO1PuNOxzDz1cBcKgz99-109" value="&lt;font style=&quot;font-size: 8px;&quot;&gt;$$(H)$$&lt;/font&gt;" style="text;html=1;align=center;verticalAlign=middle;whiteSpace=wrap;rounded=0;" vertex="1" parent="1">
          <mxGeometry x="265" y="440" width="30" height="20" as="geometry" />
        </mxCell>
        <mxCell id="GO1PuNOxzDz1cBcKgz99-116" value="" style="group" vertex="1" connectable="0" parent="1">
          <mxGeometry x="400" y="270" width="120" height="40" as="geometry" />
        </mxCell>
        <mxCell id="GO1PuNOxzDz1cBcKgz99-111" value="&lt;font style=&quot;font-size: 10px;&quot; face=&quot;Simsun&quot;&gt;&lt;b&gt;&amp;nbsp; &amp;nbsp;大语言&lt;/b&gt;&lt;/font&gt;&lt;b style=&quot;font-size: 10px; font-family: Simsun; background-color: transparent; color: light-dark(rgb(0, 0, 0), rgb(255, 255, 255));&quot;&gt;模型&lt;/b&gt;" style="rounded=1;whiteSpace=wrap;html=1;fillColor=#d5e8d4;strokeColor=#82b366;" vertex="1" parent="GO1PuNOxzDz1cBcKgz99-116">
          <mxGeometry width="120" height="40" as="geometry" />
        </mxCell>
        <mxCell id="GO1PuNOxzDz1cBcKgz99-112" value="" style="shape=image;verticalLabelPosition=bottom;labelBackgroundColor=default;verticalAlign=top;aspect=fixed;imageAspect=0;editableCssRules=.*;image=data:image/svg+xml,PHN2ZyB4bWxuczp4bGluaz0iaHR0cDovL3d3dy53My5vcmcvMTk5OS94bGluayIgeG1sbnM9Imh0dHA6Ly93d3cudzMub3JnLzIwMDAvc3ZnIiBoZWlnaHQ9IjE4NS45MjgyOTcwNDI4NDY2OCIgd2lkdGg9IjE0MS4yMzU1MTg0NTU1MDUzNyIgdmVyc2lvbj0iMS4xIiB2aWV3Qm94PSIxNDkuNjY0NzQ5MTQ1NTA3OCA3Mi4wNDcxMzQzOTk0MTQwNiA3MjMuMTI1ODU0NDkyMTg3NSA5NTEuOTUyODgwODU5Mzc1IiBjbGFzcz0iaWNvbiI+PHBhdGggZmlsbD0iIzAwMDAwMCIgZD0iTTI4Ny44OTc2IDc5LjYxNmMtNDIuMzkzNiAyNS42LTY4Ljc2MTYgMTE3Ljk2NDgtNTkuMTg3MiAyMDUuNTY4bDMuNTg0IDM0LjgxNi0xOS45NjggMTkuOTY4Yy02NC44MTkyIDY0LTgxLjIwMzIgMTYzLjIyNTYtNDAuNDQ4IDI0My4ybDEwLjg1NDQgMjEuMjQ4LTEwLjAzNTIgMjQuNzgwOGMtMjUuOTU4NCA2NS4yMjg4LTIzLjk2MTYgMTQ0LjAyNTYgNC40MDMyIDIwMC44MDY0bDExLjYyMjQgMjIuNzg0LTcuMTY4IDE0Ljg0OGMtMTYuNDM1MiAzMy41ODcyLTI0LjQyMjQgMTA3LjUyLTE0Ljg0OCAxNDEuMTU4NGwzLjk5MzYgMTUuMjA2NGg2MC40MTZsLTMuMTc0NC0xMy4yMDk2Yy0yLjA0OC02LjgwOTYtMy41ODQtMzAuNzcxMi0zLjU4NC01Mi43ODcyIDAtMzcuOTkwNCAwLjc2OC00MS42MjU2IDE1LjE1NTItNzEuNTc3NiA3Ljk4NzItMTcuMjAzMiAxNC44NDgtMzQuNDA2NCAxNC44NDgtMzguMDQxNiAwLTMuNTg0LTUuNjMyLTE1LjU2NDgtMTIuOC0yNi43Nzc2LTM1LjYzNTItNTUuNjAzMi0zNi40NTQ0LTEyMy41OTY4LTIuODE2LTE5MC40MTI4IDE0Ljc5NjgtMjkuNTkzNiAxNC4zMzYtMzguODA5Ni0yLjA0OC01OC43Nzc2LTIyLjM3NDQtMjYuNDE5Mi0zMy4xNzc2LTY5LjIyMjQtMjYuMzY4LTEwNC40NDggOS41NzQ0LTUwLjM4MDggNDAuMzk2OC05Mi43NzQ0IDgxLjk3MTItMTEyLjM4NCAyMC4wMTkyLTkuNTc0NCAyOS4xODQtMTEuNTcxMiA1NC43ODQtMTEuNTcxMmgzMS4yMzJsNy45ODcyLTE2LjAyNTZjMTguNDMyLTM2LjM1MiA1MC40MzItNjEuNTkzNiA5My41OTM2LTczLjk4NCA1NS42MDMyLTE2LjM4NCAxMjQuNDE2IDE0Ljc5NjggMTU0LjgyODggNzAuNGw5LjU3NDQgMTcuNjEyOCAzNC4wNDggMS45OTY4YzU3Ljk1ODQgMy45OTM2IDkzLjE4NCAyNy4xODcyIDExOC4zNzQ0IDc3Ljk3NzYgMjUuNiA1Mi4wMTkyIDIyLjQyNTYgMTA3LjIxMjgtOC4zOTY4IDE0Ny42MDk2LTE3LjIwMzIgMjIuNDI1Ni0xNy4yMDMyIDMyLTIuNDA2NCA2MS41OTM2IDMzLjU4NzIgNjYuODE2IDMyLjc2OCAxMzQuODA5Ni0yLjgxNiAxOTAuNDEyOC03LjE2OCAxMS4yMTI4LTEyLjggMjMuMTkzNi0xMi44IDI2Ljc3NzZzNi44MDk2IDIwLjgzODQgMTQuODQ4IDM3Ljk5MDRjMTQuMzM2IDMwLjAwMzIgMTUuMTU1MiAzMy42Mzg0IDE1LjE1NTIgNzEuNjI4OCAwIDIyLjAxNi0xLjU4NzIgNDUuOTc3Ni0zLjU4NCA1Mi43ODcybC0zLjIyNTYgMTMuMjA5Nmg2MC40MTZsMy45OTM2LTE0Ljg0OGM5LjYyNTYtMzMuOTQ1NiAxLjYzODQtMTA3LjkyOTYtMTQuNzk2OC0xNDEuNTY4bC03LjE2OC0xNC43OTY4IDExLjU3MTItMjIuNzg0YzI4LjQxNi01Ni44MzIgMzAuNDEyOC0xMzUuNTc3NiAzLjk5MzYtMjAxLjYyNTZsLTkuOTg0LTI1LjE5MDQgMTAuNzUyLTIyLjAxNmMyNC4wNjQtNDkuNTYxNiAyNy4yMzg0LTEwOC43NDg4IDguMDM4NC0xNjQuNzYxNi0xMC43NTItMzItMjUuMTkwNC01NC43ODQtNTAuNzkwNC03OS4yMDY0bC0xNy4yMDMyLTE3LjIwMzIgMy41ODQtMzQuODE2YzcuMjE5Mi02NS45OTY4LTguNzU1Mi0xNDguMzc3Ni0zNS41ODQtMTgzLjYwMzItMjEuMTk2OC0yNy45NTUyLTQ5LjYxMjgtMzYuMzUyLTc5LjIwNjQtMjMuOTYxNi0yNy4xODcyIDExLjE2MTYtNTAuNzkwNCA1MS41NTg0LTYxLjk1MiAxMDYuMzkzNi01LjIyMjQgMjYuMDA5Ni04LjAzODQgMzEuNTkwNC0xMi44IDI5LjU5MzYtMzQuMDQ4LTE1LjYxNi02MC40MTYtMjEuNjA2NC05NC44MjI0LTIxLjYwNjQtMzUuMjI1NiAwLTUzLjI0OCA0LjQwMzItOTMuMTg0IDIxLjYwNjQtNC44MTI4IDEuOTk2OC03LjY4LTMuNTg0LTEyLjgtMjkuNTkzNi0xMS4yNjQtNTQuNzg0LTM0LjgxNi05NS4yMzItNjIuMDU0NC0xMDYuMzkzNi0xOC4zODA4LTguMDM4NC00MS4xNjQ4LTYuODA5Ni01NS42MDMyIDEuOTk2OHogbTQ1LjYxOTIgNzMuNTc0NGMxNi4wMjU2IDMyLjc2OCAyNy4xODcyIDExMC43OTY4IDE3LjYxMjggMTI1LjIzNTItMS41ODcyIDIuMzU1Mi0xMy42MTkyIDUuNTgwOC0yNi44Mjg4IDcuMTY4LTEzLjE1ODQgMS41ODcyLTI3LjEzNiAzLjU4NC0zMC43NzEyIDQuODEyOC02LjQgMS45OTY4LTcuMTY4LTEuNTg3Mi03LjE2OC0zNy4yMjI0IDAtMjEuNjA2NCAyLjc2NDgtNTAuMzgwOCA1LjkzOTItNjQuNDA5NiA3LjIxOTItMjkuOTUyIDIwLjgzODQtNTcuOTU4NCAyNy4yMzg0LTU1LjU1MiAyLjQwNjQgMC43NjggOC44MDY0IDkuOTg0IDEzLjk3NzYgMTkuOTY4eiBtMzg0LjgxOTItNS4xNzEyYzEyLjggMjQuNzgwOCAxOS45NjggNjIuNzcxMiAxOS45NjggMTA1LjU3NDQgMCAzMC44MjI0LTEuMTc3NiAzOC44MDk2LTUuMTcxMiAzNy4yMjI0LTMuMjI1Ni0xLjIyODgtMTcuNjEyOC0zLjIyNTYtMzItNC44MTI4LTMyLTMuNTg0LTMzLjIyODgtNS42MzItMjkuNTkzNi01NC4wMTYgMy41ODQtNDMuMTYxNiAyMy4xOTM2LTk5Ljk5MzYgMzUuMTc0NC05OS45OTM2IDIuMDQ4IDAgNy4xNjggNy4xNjggMTEuNjIyNCAxNi4wMjU2eiIvPjxwYXRoIGZpbGw9IiMwMDAwMDAiIGQ9Ik00NTMuNTI5NiA0NzkuNTkwNGMtNDQuOCAxOC4wMjI0LTc1LjIxMjggNDcuNjE2LTg1LjYwNjQgODMuNjA5Ni0xNS42MTYgNTQuMDE2IDguMzk2OCAxMDEuMjIyNCA2NC40MDk2IDEyNy41OTA0IDIyLjc4NCAxMC4zOTM2IDI3LjE4NzIgMTEuMjEyOCA3OS45NzQ0IDExLjIxMjggNTIuNzg3MiAwIDU3LjE5MDQtMC44MTkyIDgwLjAyNTYtMTEuMjEyOCA0MS4xNjQ4LTE5LjIgNjQtNDcuOTc0NCA2OC43NjE2LTg2LjM3NDQgNS4yMjI0LTQ2LjQzODQtMjMuOTYxNi05Mi40MTYtNzMuOTg0LTExNy4yNDgtMjQuMzcxMi0xMi4zOTA0LTMwLjAwMzItMTMuMTU4NC03MC44MDk2LTEzLjk3NzYtMzUuMTc0NC0wLjc2OC00Ny42MTYgMC40MDk2LTYyLjc3MTIgNi40eiBtMTAxLjk5MDQgMzguODA5NmM5Ljk4NCAzLjIyNTYgMjYuNDE5MiAxMy4yMDk2IDM2LjQwMzIgMjIuMDE2IDM1LjIyNTYgMzEuMjMyIDM3Ljk5MDQgNjguNDAzMiA2LjgwOTYgOTYuNzY4LTIxLjYwNjQgMTkuNjA5Ni00MC4wMzg0IDI0LjgzMi04Ni40MjU2IDI0LjgzMi00Ni4zODcyIDAtNjQuNzY4LTUuMjIyNC04Ni4zNzQ0LTI0LjgzMi0zMS4yMzItMjguMzY0OC0yOC40MTYtNjUuNTM2IDYuODA5Ni05Ni43NjggOS45ODQtOC44MDY0IDI1LjYtMTguNDMyIDM0LjgxNi0yMi4wMTYgMjIuMzc0NC03LjU3NzYgNjUuMTc3Ni03Ljk4NzIgODcuOTYxNiAweiIvPjxwYXRoIGZpbGw9IiMwMDAwMDAiIGQ9Ik00ODAuNzY4IDU1OC43OTY4Yy01LjYzMiA1LjYzMi0yLjA0OCAyNS4xOTA0IDUuMTIgMzAuMDAzMiA0LjgxMjggMy41ODQgOC40NDggMTEuMjEyOCA5LjIxNiAyMS4xOTY4IDEuMjI4OCAxNS42MTYgMS42Mzg0IDE2LjAyNTYgMTcuMjAzMiAxNi4wMjU2IDE1LjYxNiAwIDE2LjAyNTYtMC40MDk2IDE2LjM4NC0xNS4yMDY0IDAtMTAuMDM1MiAzLjIyNTYtMTcuNjEyOCA4LjgwNjQtMjIuODM1MiA5LjYyNTYtOS4yMTYgMTEuNjIyNC0yMC43ODcyIDQuMDQ0OC0yNi43Nzc2LTUuNjMyLTQuNDAzMi01Ni44MzItNS45OTA0LTYwLjgyNTYtMi40MDY0ek0zMTEuODU5MiA0ODAuNDA5NmMtMTguNDMyIDkuMjE2LTI4LjAwNjQgNDQuOC0xNi4zODQgNjAuMDA2NCA3LjE2OCA5LjIxNiAyMC43ODcyIDE1LjU2NDggMzMuOTk2OCAxNS41NjQ4IDE3LjIwMzIgMCAzNi44MTI4LTIzLjE5MzYgMzYuODEyOC00My4xNjE2IDAtOC4wMzg0LTIuNDA2NC0xNy42MTI4LTUuMjIyNC0yMS4xOTY4YTQwLjk2IDQwLjk2IDAgMCAwLTQ5LjE1Mi0xMS4yNjR6IG0zNjQuMzkwNCAwLjQwOTZjLTEyLjggNy4xNjgtMTcuNTYxNiAxNS45NzQ0LTE3Ljk3MTIgMzIgMCAxOS45NjggMTkuNjA5NiA0My4xNjE2IDM2LjgxMjggNDMuMTYxNiAyMy4xOTM2IDAgMzguNzU4NC0xMy45Nzc2IDM5LjE2OC0zNS4xNzQ0IDAtMzIuNzY4LTMyLTU0Ljc4NC01OC4wMDk2LTM5Ljk4NzJ6Ii8+PC9zdmc+;" vertex="1" parent="GO1PuNOxzDz1cBcKgz99-116">
          <mxGeometry x="18.46338461538452" y="10" width="14.003076923076923" height="18.461538461538463" as="geometry" />
        </mxCell>
        <mxCell id="GO1PuNOxzDz1cBcKgz99-117" value="" style="shape=flexArrow;endArrow=classic;html=1;rounded=0;" edge="1" parent="1">
          <mxGeometry width="50" height="50" relative="1" as="geometry">
            <mxPoint x="459.71" y="190" as="sourcePoint" />
            <mxPoint x="459.71" y="260" as="targetPoint" />
          </mxGeometry>
        </mxCell>
        <mxCell id="GO1PuNOxzDz1cBcKgz99-118" value="&lt;font face=&quot;SimSun&quot;&gt;变长的轨迹数据&lt;/font&gt;" style="text;html=1;align=center;verticalAlign=middle;whiteSpace=wrap;rounded=0;fontSize=10;fontStyle=1" vertex="1" parent="1">
          <mxGeometry x="360" y="120" width="90" height="20" as="geometry" />
        </mxCell>
        <mxCell id="GO1PuNOxzDz1cBcKgz99-119" value="" style="rounded=0;whiteSpace=wrap;html=1;fillColor=#f8cecc;strokeColor=#b85450;" vertex="1" parent="1">
          <mxGeometry x="360" y="150" width="10" height="10" as="geometry" />
        </mxCell>
        <mxCell id="GO1PuNOxzDz1cBcKgz99-120" value="" style="rounded=0;whiteSpace=wrap;html=1;fillColor=#f8cecc;strokeColor=#b85450;" vertex="1" parent="1">
          <mxGeometry x="370" y="150" width="10" height="10" as="geometry" />
        </mxCell>
        <mxCell id="GO1PuNOxzDz1cBcKgz99-121" value="" style="rounded=0;whiteSpace=wrap;html=1;fillColor=#f8cecc;strokeColor=#b85450;" vertex="1" parent="1">
          <mxGeometry x="380" y="150" width="10" height="10" as="geometry" />
        </mxCell>
        <mxCell id="GO1PuNOxzDz1cBcKgz99-122" value="" style="rounded=0;whiteSpace=wrap;html=1;fillColor=#f8cecc;strokeColor=#b85450;" vertex="1" parent="1">
          <mxGeometry x="390" y="150" width="10" height="10" as="geometry" />
        </mxCell>
        <mxCell id="GO1PuNOxzDz1cBcKgz99-123" value="" style="rounded=0;whiteSpace=wrap;html=1;fillColor=#f8cecc;strokeColor=#b85450;" vertex="1" parent="1">
          <mxGeometry x="400" y="150" width="10" height="10" as="geometry" />
        </mxCell>
        <mxCell id="GO1PuNOxzDz1cBcKgz99-124" value="" style="rounded=0;whiteSpace=wrap;html=1;fillColor=#f8cecc;strokeColor=#b85450;" vertex="1" parent="1">
          <mxGeometry x="410" y="150" width="10" height="10" as="geometry" />
        </mxCell>
        <mxCell id="GO1PuNOxzDz1cBcKgz99-125" value="" style="rounded=0;whiteSpace=wrap;html=1;fillColor=#f8cecc;strokeColor=#b85450;" vertex="1" parent="1">
          <mxGeometry x="420" y="150" width="10" height="10" as="geometry" />
        </mxCell>
        <mxCell id="GO1PuNOxzDz1cBcKgz99-126" value="" style="rounded=0;whiteSpace=wrap;html=1;fillColor=#f8cecc;strokeColor=#b85450;" vertex="1" parent="1">
          <mxGeometry x="430" y="150" width="10" height="10" as="geometry" />
        </mxCell>
        <mxCell id="GO1PuNOxzDz1cBcKgz99-127" value="" style="rounded=0;whiteSpace=wrap;html=1;fillColor=#f8cecc;strokeColor=#b85450;" vertex="1" parent="1">
          <mxGeometry x="440" y="150" width="10" height="10" as="geometry" />
        </mxCell>
        <mxCell id="GO1PuNOxzDz1cBcKgz99-128" value="" style="rounded=0;whiteSpace=wrap;html=1;fillColor=#f8cecc;strokeColor=#b85450;" vertex="1" parent="1">
          <mxGeometry x="360" y="140" width="10" height="10" as="geometry" />
        </mxCell>
        <mxCell id="GO1PuNOxzDz1cBcKgz99-129" value="" style="rounded=0;whiteSpace=wrap;html=1;fillColor=#f8cecc;strokeColor=#b85450;" vertex="1" parent="1">
          <mxGeometry x="370" y="140" width="10" height="10" as="geometry" />
        </mxCell>
        <mxCell id="GO1PuNOxzDz1cBcKgz99-130" value="" style="rounded=0;whiteSpace=wrap;html=1;fillColor=#f8cecc;strokeColor=#b85450;" vertex="1" parent="1">
          <mxGeometry x="380" y="140" width="10" height="10" as="geometry" />
        </mxCell>
        <mxCell id="GO1PuNOxzDz1cBcKgz99-131" value="" style="rounded=0;whiteSpace=wrap;html=1;fillColor=#f8cecc;strokeColor=#b85450;" vertex="1" parent="1">
          <mxGeometry x="390" y="140" width="10" height="10" as="geometry" />
        </mxCell>
        <mxCell id="GO1PuNOxzDz1cBcKgz99-132" value="" style="rounded=0;whiteSpace=wrap;html=1;fillColor=#f8cecc;strokeColor=#b85450;" vertex="1" parent="1">
          <mxGeometry x="400" y="140" width="10" height="10" as="geometry" />
        </mxCell>
        <mxCell id="GO1PuNOxzDz1cBcKgz99-133" value="" style="rounded=0;whiteSpace=wrap;html=1;fillColor=#f8cecc;strokeColor=#b85450;" vertex="1" parent="1">
          <mxGeometry x="410" y="140" width="10" height="10" as="geometry" />
        </mxCell>
        <mxCell id="GO1PuNOxzDz1cBcKgz99-134" value="" style="rounded=0;whiteSpace=wrap;html=1;fillColor=#f8cecc;strokeColor=#b85450;" vertex="1" parent="1">
          <mxGeometry x="420" y="140" width="10" height="10" as="geometry" />
        </mxCell>
        <mxCell id="GO1PuNOxzDz1cBcKgz99-135" value="" style="rounded=0;whiteSpace=wrap;html=1;fillColor=#f8cecc;strokeColor=#b85450;" vertex="1" parent="1">
          <mxGeometry x="430" y="140" width="10" height="10" as="geometry" />
        </mxCell>
        <mxCell id="GO1PuNOxzDz1cBcKgz99-136" value="" style="rounded=0;whiteSpace=wrap;html=1;fillColor=#f8cecc;strokeColor=#b85450;" vertex="1" parent="1">
          <mxGeometry x="440" y="140" width="10" height="10" as="geometry" />
        </mxCell>
        <mxCell id="GO1PuNOxzDz1cBcKgz99-137" value="" style="rounded=0;whiteSpace=wrap;html=1;fillColor=#f8cecc;strokeColor=#b85450;" vertex="1" parent="1">
          <mxGeometry x="360" y="160" width="10" height="10" as="geometry" />
        </mxCell>
        <mxCell id="GO1PuNOxzDz1cBcKgz99-138" value="" style="rounded=0;whiteSpace=wrap;html=1;fillColor=#f8cecc;strokeColor=#b85450;" vertex="1" parent="1">
          <mxGeometry x="370" y="160" width="10" height="10" as="geometry" />
        </mxCell>
        <mxCell id="GO1PuNOxzDz1cBcKgz99-139" value="" style="rounded=0;whiteSpace=wrap;html=1;fillColor=#f8cecc;strokeColor=#b85450;" vertex="1" parent="1">
          <mxGeometry x="380" y="160" width="10" height="10" as="geometry" />
        </mxCell>
        <mxCell id="GO1PuNOxzDz1cBcKgz99-140" value="" style="rounded=0;whiteSpace=wrap;html=1;fillColor=#f8cecc;strokeColor=#b85450;" vertex="1" parent="1">
          <mxGeometry x="390" y="160" width="10" height="10" as="geometry" />
        </mxCell>
        <mxCell id="GO1PuNOxzDz1cBcKgz99-141" value="" style="rounded=0;whiteSpace=wrap;html=1;fillColor=#f8cecc;strokeColor=#b85450;" vertex="1" parent="1">
          <mxGeometry x="400" y="160" width="10" height="10" as="geometry" />
        </mxCell>
        <mxCell id="GO1PuNOxzDz1cBcKgz99-142" value="" style="rounded=0;whiteSpace=wrap;html=1;fillColor=#f8cecc;strokeColor=#b85450;" vertex="1" parent="1">
          <mxGeometry x="410" y="160" width="10" height="10" as="geometry" />
        </mxCell>
        <mxCell id="GO1PuNOxzDz1cBcKgz99-143" value="" style="rounded=0;whiteSpace=wrap;html=1;fillColor=#f8cecc;strokeColor=#b85450;" vertex="1" parent="1">
          <mxGeometry x="420" y="160" width="10" height="10" as="geometry" />
        </mxCell>
        <mxCell id="GO1PuNOxzDz1cBcKgz99-144" value="" style="rounded=0;whiteSpace=wrap;html=1;fillColor=#f8cecc;strokeColor=#b85450;" vertex="1" parent="1">
          <mxGeometry x="430" y="160" width="10" height="10" as="geometry" />
        </mxCell>
        <mxCell id="GO1PuNOxzDz1cBcKgz99-145" value="" style="rounded=0;whiteSpace=wrap;html=1;fillColor=#f8cecc;strokeColor=#b85450;" vertex="1" parent="1">
          <mxGeometry x="440" y="160" width="10" height="10" as="geometry" />
        </mxCell>
        <mxCell id="GO1PuNOxzDz1cBcKgz99-146" value="&lt;font style=&quot;font-size: 8px;&quot;&gt;$$(L,F)$$&lt;/font&gt;" style="text;html=1;align=center;verticalAlign=middle;whiteSpace=wrap;rounded=0;" vertex="1" parent="1">
          <mxGeometry x="385" y="170" width="40" height="20" as="geometry" />
        </mxCell>
        <mxCell id="GO1PuNOxzDz1cBcKgz99-147" value="" style="shape=flexArrow;endArrow=classic;html=1;rounded=0;" edge="1" parent="1">
          <mxGeometry width="50" height="50" relative="1" as="geometry">
            <mxPoint x="459.65999999999997" y="320" as="sourcePoint" />
            <mxPoint x="459.65999999999997" y="390" as="targetPoint" />
          </mxGeometry>
        </mxCell>
        <mxCell id="GO1PuNOxzDz1cBcKgz99-148" value="" style="rounded=0;whiteSpace=wrap;html=1;fillColor=#d5e8d4;strokeColor=#82b366;" vertex="1" parent="1">
          <mxGeometry x="455" y="410" width="10" height="10" as="geometry" />
        </mxCell>
        <mxCell id="GO1PuNOxzDz1cBcKgz99-149" value="" style="rounded=0;whiteSpace=wrap;html=1;fillColor=#d5e8d4;strokeColor=#82b366;" vertex="1" parent="1">
          <mxGeometry x="455" y="420" width="10" height="10" as="geometry" />
        </mxCell>
        <mxCell id="GO1PuNOxzDz1cBcKgz99-150" value="" style="rounded=0;whiteSpace=wrap;html=1;fillColor=#d5e8d4;strokeColor=#82b366;" vertex="1" parent="1">
          <mxGeometry x="455" y="400" width="10" height="10" as="geometry" />
        </mxCell>
        <mxCell id="GO1PuNOxzDz1cBcKgz99-151" value="" style="rounded=0;whiteSpace=wrap;html=1;fillColor=#d5e8d4;strokeColor=#82b366;" vertex="1" parent="1">
          <mxGeometry x="455" y="440" width="10" height="10" as="geometry" />
        </mxCell>
        <mxCell id="GO1PuNOxzDz1cBcKgz99-152" value="" style="rounded=0;whiteSpace=wrap;html=1;fillColor=#d5e8d4;strokeColor=#82b366;" vertex="1" parent="1">
          <mxGeometry x="455" y="450" width="10" height="10" as="geometry" />
        </mxCell>
        <mxCell id="GO1PuNOxzDz1cBcKgz99-153" value="" style="rounded=0;whiteSpace=wrap;html=1;fillColor=#d5e8d4;strokeColor=#82b366;" vertex="1" parent="1">
          <mxGeometry x="455" y="430" width="10" height="10" as="geometry" />
        </mxCell>
        <mxCell id="GO1PuNOxzDz1cBcKgz99-154" value="&lt;font style=&quot;font-size: 8px;&quot;&gt;$$(C)$$&lt;/font&gt;" style="text;html=1;align=center;verticalAlign=middle;whiteSpace=wrap;rounded=0;" vertex="1" parent="1">
          <mxGeometry x="465" y="440" width="30" height="20" as="geometry" />
        </mxCell>
        <mxCell id="GO1PuNOxzDz1cBcKgz99-155" value="&lt;font face=&quot;SimSun&quot;&gt;固定维度的Embedding向量&lt;/font&gt;" style="text;html=1;align=center;verticalAlign=middle;whiteSpace=wrap;rounded=0;fontSize=10;fontStyle=1" vertex="1" parent="1">
          <mxGeometry x="215" y="470" width="90" height="20" as="geometry" />
        </mxCell>
        <mxCell id="GO1PuNOxzDz1cBcKgz99-156" value="&lt;font face=&quot;SimSun&quot;&gt;固定维度的增强向量&lt;/font&gt;" style="text;html=1;align=center;verticalAlign=middle;whiteSpace=wrap;rounded=0;fontSize=10;fontStyle=1" vertex="1" parent="1">
          <mxGeometry x="407.5" y="470" width="105" height="20" as="geometry" />
        </mxCell>
        <mxCell id="GO1PuNOxzDz1cBcKgz99-157" value="&lt;font face=&quot;Simsun&quot;&gt;&lt;span style=&quot;font-size: 10px;&quot;&gt;&lt;b&gt;OpenStreetMap&lt;/b&gt;&lt;/span&gt;&lt;/font&gt;&lt;div&gt;&lt;font face=&quot;Simsun&quot;&gt;&lt;span style=&quot;font-size: 10px;&quot;&gt;&lt;b&gt;城市、日期&lt;/b&gt;&lt;/span&gt;&lt;/font&gt;&lt;/div&gt;" style="shape=datastore;whiteSpace=wrap;html=1;fillColor=#ffe6cc;strokeColor=#d79b00;" vertex="1" parent="1">
          <mxGeometry x="470" y="125" width="90" height="60" as="geometry" />
        </mxCell>
        <mxCell id="GO1PuNOxzDz1cBcKgz99-158" value="&lt;font face=&quot;SimSun&quot;&gt;外部信息&lt;/font&gt;" style="text;html=1;align=center;verticalAlign=middle;whiteSpace=wrap;rounded=0;fontSize=10;fontStyle=1" vertex="1" parent="1">
          <mxGeometry x="470" y="105" width="90" height="20" as="geometry" />
        </mxCell>
        <mxCell id="GO1PuNOxzDz1cBcKgz99-159" value="&lt;font face=&quot;Simsun&quot;&gt;&lt;span style=&quot;font-size: 10px;&quot;&gt;&lt;b&gt;下游任务分析算法&lt;/b&gt;&lt;/span&gt;&lt;/font&gt;" style="rounded=1;whiteSpace=wrap;html=1;fillColor=#e1d5e7;strokeColor=#9673a6;" vertex="1" parent="1">
          <mxGeometry x="600" y="270" width="120" height="40" as="geometry" />
        </mxCell>
        <mxCell id="GO1PuNOxzDz1cBcKgz99-160" value="" style="shape=flexArrow;endArrow=classic;html=1;rounded=0;" edge="1" parent="1">
          <mxGeometry width="50" height="50" relative="1" as="geometry">
            <mxPoint x="659.5" y="190" as="sourcePoint" />
            <mxPoint x="659.5" y="260" as="targetPoint" />
          </mxGeometry>
        </mxCell>
        <mxCell id="GO1PuNOxzDz1cBcKgz99-161" value="" style="shape=flexArrow;endArrow=classic;html=1;rounded=0;" edge="1" parent="1">
          <mxGeometry width="50" height="50" relative="1" as="geometry">
            <mxPoint x="659.5" y="320" as="sourcePoint" />
            <mxPoint x="659.5" y="390" as="targetPoint" />
          </mxGeometry>
        </mxCell>
        <mxCell id="GO1PuNOxzDz1cBcKgz99-175" value="&lt;font style=&quot;font-size: 8px;&quot;&gt;$$(H+C)$$&lt;/font&gt;" style="text;html=1;align=center;verticalAlign=middle;whiteSpace=wrap;rounded=0;" vertex="1" parent="1">
          <mxGeometry x="640" y="161" width="40" height="20" as="geometry" />
        </mxCell>
        <mxCell id="GO1PuNOxzDz1cBcKgz99-176" value="" style="group" vertex="1" connectable="0" parent="1">
          <mxGeometry x="661" y="150" width="60" height="10" as="geometry" />
        </mxCell>
        <mxCell id="GO1PuNOxzDz1cBcKgz99-169" value="" style="rounded=0;whiteSpace=wrap;html=1;fillColor=#fff2cc;strokeColor=#d6b656;" vertex="1" parent="GO1PuNOxzDz1cBcKgz99-176">
          <mxGeometry x="40" width="10" height="10" as="geometry" />
        </mxCell>
        <mxCell id="GO1PuNOxzDz1cBcKgz99-170" value="" style="rounded=0;whiteSpace=wrap;html=1;fillColor=#fff2cc;strokeColor=#d6b656;" vertex="1" parent="GO1PuNOxzDz1cBcKgz99-176">
          <mxGeometry width="10" height="10" as="geometry" />
        </mxCell>
        <mxCell id="GO1PuNOxzDz1cBcKgz99-171" value="" style="rounded=0;whiteSpace=wrap;html=1;fillColor=#fff2cc;strokeColor=#d6b656;" vertex="1" parent="GO1PuNOxzDz1cBcKgz99-176">
          <mxGeometry x="50" width="10" height="10" as="geometry" />
        </mxCell>
        <mxCell id="GO1PuNOxzDz1cBcKgz99-172" value="" style="rounded=0;whiteSpace=wrap;html=1;fillColor=#fff2cc;strokeColor=#d6b656;" vertex="1" parent="GO1PuNOxzDz1cBcKgz99-176">
          <mxGeometry x="20" width="10" height="10" as="geometry" />
        </mxCell>
        <mxCell id="GO1PuNOxzDz1cBcKgz99-173" value="" style="rounded=0;whiteSpace=wrap;html=1;fillColor=#fff2cc;strokeColor=#d6b656;" vertex="1" parent="GO1PuNOxzDz1cBcKgz99-176">
          <mxGeometry x="30" width="10" height="10" as="geometry" />
        </mxCell>
        <mxCell id="GO1PuNOxzDz1cBcKgz99-174" value="" style="rounded=0;whiteSpace=wrap;html=1;fillColor=#fff2cc;strokeColor=#d6b656;" vertex="1" parent="GO1PuNOxzDz1cBcKgz99-176">
          <mxGeometry x="10" width="10" height="10" as="geometry" />
        </mxCell>
        <mxCell id="GO1PuNOxzDz1cBcKgz99-177" value="" style="group" vertex="1" connectable="0" parent="1">
          <mxGeometry x="600" y="150" width="60" height="10" as="geometry" />
        </mxCell>
        <mxCell id="GO1PuNOxzDz1cBcKgz99-163" value="" style="rounded=0;whiteSpace=wrap;html=1;fillColor=#d5e8d4;strokeColor=#82b366;" vertex="1" parent="GO1PuNOxzDz1cBcKgz99-177">
          <mxGeometry x="40" width="10" height="10" as="geometry" />
        </mxCell>
        <mxCell id="GO1PuNOxzDz1cBcKgz99-164" value="" style="rounded=0;whiteSpace=wrap;html=1;fillColor=#d5e8d4;strokeColor=#82b366;" vertex="1" parent="GO1PuNOxzDz1cBcKgz99-177">
          <mxGeometry width="10" height="10" as="geometry" />
        </mxCell>
        <mxCell id="GO1PuNOxzDz1cBcKgz99-165" value="" style="rounded=0;whiteSpace=wrap;html=1;fillColor=#d5e8d4;strokeColor=#82b366;" vertex="1" parent="GO1PuNOxzDz1cBcKgz99-177">
          <mxGeometry x="50" width="10" height="10" as="geometry" />
        </mxCell>
        <mxCell id="GO1PuNOxzDz1cBcKgz99-166" value="" style="rounded=0;whiteSpace=wrap;html=1;fillColor=#d5e8d4;strokeColor=#82b366;" vertex="1" parent="GO1PuNOxzDz1cBcKgz99-177">
          <mxGeometry x="20" width="10" height="10" as="geometry" />
        </mxCell>
        <mxCell id="GO1PuNOxzDz1cBcKgz99-167" value="" style="rounded=0;whiteSpace=wrap;html=1;fillColor=#d5e8d4;strokeColor=#82b366;" vertex="1" parent="GO1PuNOxzDz1cBcKgz99-177">
          <mxGeometry x="10" width="10" height="10" as="geometry" />
        </mxCell>
        <mxCell id="GO1PuNOxzDz1cBcKgz99-168" value="" style="rounded=0;whiteSpace=wrap;html=1;fillColor=#d5e8d4;strokeColor=#82b366;" vertex="1" parent="GO1PuNOxzDz1cBcKgz99-177">
          <mxGeometry x="30" width="10" height="10" as="geometry" />
        </mxCell>
        <mxCell id="GO1PuNOxzDz1cBcKgz99-178" value="&lt;font face=&quot;SimSun&quot;&gt;拼接的表示向量&lt;/font&gt;" style="text;html=1;align=center;verticalAlign=middle;whiteSpace=wrap;rounded=0;fontSize=10;fontStyle=1" vertex="1" parent="1">
          <mxGeometry x="610" y="130" width="100" height="20" as="geometry" />
        </mxCell>
        <mxCell id="GO1PuNOxzDz1cBcKgz99-179" value="&lt;font face=&quot;SimSun&quot;&gt;路网ID、到达时间&lt;/font&gt;" style="text;html=1;align=center;verticalAlign=middle;whiteSpace=wrap;rounded=0;fontSize=10;fontStyle=1" vertex="1" parent="1">
          <mxGeometry x="610" y="400" width="100" height="20" as="geometry" />
        </mxCell>
      </root>
    </mxGraphModel>
  </diagram>
</mxfile>
